<svg xmlns="http://www.w3.org/2000/svg" width="460.251" height="201.408" viewBox="0 0 460.251 201.408"><g transform="translate(248.161 47)"><path d="M162.376,152.705l.8.777,29.24,28.234V89.309h-60.09v92.408l29.24-28.234Z" transform="translate(-132.331 -89.309)"/></g><g transform="translate(324.161)"><path d="M162.376,152.705l.8.777,29.24,28.234V89.309h-60.09v92.408l29.24-28.234Z" transform="translate(-132.331 -89.309)"/></g><g transform="translate(400.161 84)"><path d="M162.376,152.705l.8.777,29.24,28.234V89.309h-60.09v92.408l29.24-28.234Z" transform="translate(-132.331 -89.309)"/></g><g transform="translate(324.161 109)"><path d="M162.376,152.705l.8.777,29.24,28.234V89.309h-60.09v92.408l29.24-28.234Z" transform="translate(-132.331 -89.309)"/></g><g transform="translate(0 46.421)"><g transform="translate(0 0)"><g transform="translate(0 0)"><path d="M151.756-185.033v82.686L127.425-125.84l-.8-.777-2.012-1.943-2.012,1.943-.8.777L97.46-102.347v-82.686h54.3m2.9-2.9H94.563v92.408l29.24-28.234.8-.777.8.777,29.24,28.234V-187.93Z" transform="translate(-94.563 187.93)"/></g><path d="M133.233-170.52h-2.981v18.9h-18.9v2.981h18.9v18.9h2.981v-18.9h18.9v-2.981h-18.9v-18.9Z" transform="translate(-101.623 180.608)"/></g></g><g transform="translate(101.398 70.467)"><line x2="105" transform="translate(-0.272 22.206)" fill="none" stroke="#000" stroke-width="3"/><line x2="22.018" y2="22.018" transform="translate(82.278 0)" fill="none" stroke="#000" stroke-width="3"/><line y1="22.018" x2="22.018" transform="translate(82.278 22.018)" fill="none" stroke="#000" stroke-width="3"/></g></svg>