<svg xmlns="http://www.w3.org/2000/svg" width="16.326" height="25.107" viewBox="0 0 16.326 25.107">
  <g id="add_to_bookmarks_with_plus_" data-name="add to bookmarks (with plus)" transform="translate(0 0)">
    <g id="Path_318" data-name="Path 318" transform="translate(-132.331 -89.309)" fill="none">
      <path d="M140.494,106.533l.219.211,7.944,7.671V89.309H132.331v25.107l7.944-7.671Z" stroke="none"/>
      <path d="M 147.6569213867188 112.0596466064453 L 147.6569213867188 90.30860900878906 L 133.3309478759766 90.30860900878906 L 133.3309478759766 112.0596466064453 L 139.5806579589844 106.0249710083008 L 139.7993621826172 105.8138122558594 L 140.4940032958984 105.1431655883789 L 141.1885833740234 105.8138580322266 L 141.4072418212891 106.025016784668 L 147.6569213867188 112.0596466064453 M 148.6569213867188 114.4153289794922 L 140.7126312255859 106.7443923950195 L 140.4939422607422 106.5332260131836 L 140.2752380371094 106.7443923950195 L 132.3309478759766 114.4153289794922 L 132.3309478759766 89.30860900878906 L 148.6569213867188 89.30860900878906 L 148.6569213867188 114.4153289794922 Z" stroke="none"/>
    </g>
    <g id="Group_1006" data-name="Group 1006" transform="translate(4.408 4.258)">
      <line id="Line_100" data-name="Line 100" x2="7.013" transform="translate(0 3.507)" fill="none" stroke="#000" stroke-width="1"/>
      <line id="Line_101" data-name="Line 101" y2="7.014" transform="translate(3.507)" fill="none" stroke="#000" stroke-width="1"/>
    </g>
  </g>
</svg>
