<svg xmlns="http://www.w3.org/2000/svg" width="28.236" height="22.957" viewBox="0 0 28.236 22.957"><path d="M-4.738,20q.69.067,1.377.068a11.387,11.387,0,0,0,7.208-2.478A5.582,5.582,0,0,1,.474,16.444a5.645,5.645,0,0,1-2.044-2.87,5.458,5.458,0,0,0,1.079.092,5.674,5.674,0,0,0,1.538-.207,5.585,5.585,0,0,1-3.34-1.985A5.614,5.614,0,0,1-3.613,7.79V7.72a5.434,5.434,0,0,0,2.639.712A5.687,5.687,0,0,1-2.867,6.377a5.648,5.648,0,0,1-.7-2.765A5.627,5.627,0,0,1-2.764.7,16.106,16.106,0,0,0,2.505,4.978,16.306,16.306,0,0,0,9.174,6.757a6.514,6.514,0,0,1-.161-1.331,5.571,5.571,0,0,1,1.7-4.086,5.6,5.6,0,0,1,4.11-1.7,5.565,5.565,0,0,1,4.223,1.837A11.655,11.655,0,0,0,22.718.054a5.521,5.521,0,0,1-2.525,3.214A11.827,11.827,0,0,0,23.5,2.35a11.115,11.115,0,0,1-2.87,3.007v.759a16.612,16.612,0,0,1-.677,4.648,16.541,16.541,0,0,1-2.066,4.455,17.735,17.735,0,0,1-3.317,3.775,14.7,14.7,0,0,1-4.626,2.629,16.9,16.9,0,0,1-5.8.975A16.263,16.263,0,0,1-4.738,20Z" transform="translate(4.738 0.359)"/></svg>