<svg xmlns="http://www.w3.org/2000/svg" width="42.848" height="68.45" viewBox="0 0 42.848 68.45">
  <g id="icon-map-type-map" transform="translate(0 0)">
    <path id="Path_256" data-name="Path 256" d="M996.278,118.538a21.625,21.625,0,0,0-21.431,21.728,26.17,26.17,0,0,0,3.22,12.567L996.6,186.988l18.063-34.836a24.8,24.8,0,0,0,3.03-11.887A21.614,21.614,0,0,0,996.278,118.538Zm-.007,36.035a14.443,14.443,0,1,1,14.443-14.443A14.443,14.443,0,0,1,996.271,154.573Z" transform="translate(-974.847 -118.538)" fill="#fff"/>
    <circle id="Ellipse_82" data-name="Ellipse 82" cx="12.507" cy="12.507" r="12.507" transform="translate(3.736 21.592) rotate(-45)" fill="#fff"/>
  </g>
</svg>
