<svg id="icon-file-type-docx" xmlns="http://www.w3.org/2000/svg" width="44.989" height="70.362" viewBox="0 0 44.989 70.362">
  <path id="Path_325" data-name="Path 325" d="M526.886-376.074v15.723h15.724Z" transform="translate(-499.714 378.168)"/>
  <g id="Group_971" data-name="Group 971" transform="translate(0)">
    <path id="Path_326" data-name="Path 326" d="M479.907-253.6h-1.352v9.414h1.212a2.808,2.808,0,0,0,2.325-.911,4.309,4.309,0,0,0,.75-2.7v-2.128a4.35,4.35,0,0,0-.729-2.785A2.69,2.69,0,0,0,479.907-253.6Z" transform="translate(-472.35 308.824)"/>
    <path id="Path_327" data-name="Path 327" d="M502.282-253.825a2.131,2.131,0,0,0-1.884.94,4.973,4.973,0,0,0-.647,2.77v2.151a5.088,5.088,0,0,0,.639,2.8,2.139,2.139,0,0,0,1.909.964,2.122,2.122,0,0,0,1.879-.89,5,5,0,0,0,.635-2.729v-2.25a5.141,5.141,0,0,0-.623-2.831A2.139,2.139,0,0,0,502.282-253.825Z" transform="translate(-484.351 308.953)"/>
    <path id="Path_328" data-name="Path 328" d="M488.821-359.614h-.867V-380.9h-23.7v70.362h44.989v-49.074Zm-12.586,39.667a5.286,5.286,0,0,1-1.179,3.681,4.386,4.386,0,0,1-3.421,1.3h-2.687v-12h2.861a4.129,4.129,0,0,1,3.264,1.315,5.4,5.4,0,0,1,1.162,3.7Zm9.987.033a5.989,5.989,0,0,1-1.047,3.784A3.568,3.568,0,0,1,482.2-314.8a3.613,3.613,0,0,1-2.93-1.29,5.7,5.7,0,0,1-1.117-3.648V-322a5.994,5.994,0,0,1,1.063-3.771,3.549,3.549,0,0,1,2.968-1.364,3.592,3.592,0,0,1,2.955,1.307,5.892,5.892,0,0,1,1.084,3.73Zm4.031,2.844a1.99,1.99,0,0,0,1.793.973,2.167,2.167,0,0,0,1.7-.585,3.68,3.68,0,0,0,.643-2.1h1.525a4.448,4.448,0,0,1-1.084,2.955,3.675,3.675,0,0,1-2.782,1.026,3.438,3.438,0,0,1-2.868-1.372,5.924,5.924,0,0,1-1.064-3.722v-2.176a5.748,5.748,0,0,1,1.092-3.7,3.617,3.617,0,0,1,2.98-1.36,3.468,3.468,0,0,1,2.691,1.039,4.553,4.553,0,0,1,1.035,2.976h-1.525a3.713,3.713,0,0,0-.618-2.094,1.94,1.94,0,0,0-1.583-.626,2.152,2.152,0,0,0-1.888.96,4.972,4.972,0,0,0-.66,2.815v2.2A5.253,5.253,0,0,0,490.253-317.07Zm13.214,2.1-2.308-4.682-2.317,4.682h-1.788l3.206-6.05-3.14-5.952h1.764l2.275,4.6,2.259-4.6h1.772l-3.124,5.952,3.19,6.05Z" transform="translate(-464.252 380.902)"/>
  </g>
</svg>
