<svg xmlns="http://www.w3.org/2000/svg" width="43.881" height="67.481" viewBox="0 0 43.881 67.481">
  <g id="Component_331_1" data-name="Component 331 – 1" transform="translate(0)">
    <g id="Group_995" data-name="Group 995" transform="translate(0 0)">
      <g id="Path_339" data-name="Path 339" transform="translate(-132.331 -89.309)" fill="none">
        <path d="M154.272,135.6l.588.568,21.353,20.618V89.309H132.331V156.79l21.353-20.618Z" stroke="none"/>
        <path d="M 174.2120208740234 152.0786590576172 L 174.2120208740234 91.30860900878906 L 134.3309631347656 91.30860900878906 L 134.3309631347656 152.0786437988281 L 152.2944641113281 134.7333526611328 L 152.8823394775391 134.1657562255859 L 154.2716522216797 132.8243713378906 L 155.6608428955078 134.1658935546875 L 156.2485198974609 134.7334136962891 L 174.2120208740234 152.0786590576172 M 176.2120208740234 156.7900085449219 L 154.8592834472656 136.1721649169922 L 154.2715148925781 135.6045684814453 L 153.6836395263672 136.1721649169922 L 132.3309631347656 156.7900085449219 L 132.3309631347656 89.30860900878906 L 176.2120208740234 89.30860900878906 L 176.2120208740234 156.7900085449219 Z" stroke="none" fill="#fff"/>
      </g>
      <g id="Group_996" data-name="Group 996" transform="translate(11.07 9.062)">
        <line id="Line_96" data-name="Line 96" x2="22.571" transform="translate(0 10.851)" fill="none" stroke="#fff" stroke-width="2"/>
        <line id="Line_97" data-name="Line 97" y2="22.571" transform="translate(11.285)" fill="none" stroke="#fff" stroke-width="2"/>
      </g>
    </g>
  </g>
</svg>
