<svg xmlns="http://www.w3.org/2000/svg" width="18.502" height="27.344" viewBox="0 0 18.502 27.344">
  <g id="Group_1043" data-name="Group 1043" transform="translate(0 0)">
    <path id="Path_281" data-name="Path 281" d="M271.528,545.336v19.431a4.1,4.1,0,0,1,3.068-1.389H290.03V542.853H274.011A2.486,2.486,0,0,0,271.528,545.336Z" transform="translate(-271.528 -542.853)"/>
    <path id="Path_282" data-name="Path 282" d="M273.534,673.721c0,.019,0,.038,0,.057s0,.03,0,.045a2.73,2.73,0,0,0,2.727,2.727h15.433v-2.044H276.068a.683.683,0,1,1,0-1.366h15.621V671.1H276.255A2.716,2.716,0,0,0,273.534,673.721Z" transform="translate(-273.187 -649.205)"/>
  </g>
</svg>
