<svg id="icon-map-type-objects" xmlns="http://www.w3.org/2000/svg" width="44.527" height="68.949" viewBox="0 0 44.527 68.949">
  <rect id="Rectangle_367" data-name="Rectangle 367" width="9.844" height="12.429" transform="translate(0 42.39)" fill="#fff"/>
  <rect id="Rectangle_368" data-name="Rectangle 368" width="9.844" height="12.43" transform="translate(0 56.519)" fill="#fff"/>
  <rect id="Rectangle_369" data-name="Rectangle 369" width="9.844" height="12.43" transform="translate(0 28.259)" fill="#fff"/>
  <rect id="Rectangle_370" data-name="Rectangle 370" width="9.844" height="12.43" transform="translate(34.683 28.259)" fill="#fff"/>
  <rect id="Rectangle_371" data-name="Rectangle 371" width="9.844" height="12.43" transform="translate(0 14.13)" fill="#fff"/>
  <rect id="Rectangle_372" data-name="Rectangle 372" width="9.844" height="12.429" transform="translate(34.683 42.39)" fill="#fff"/>
  <rect id="Rectangle_373" data-name="Rectangle 373" width="9.844" height="12.43" transform="translate(11.561 56.519)" fill="#fff"/>
  <rect id="Rectangle_374" data-name="Rectangle 374" width="9.844" height="12.43" transform="translate(34.683 14.13)" fill="#fff"/>
  <rect id="Rectangle_375" data-name="Rectangle 375" width="9.844" height="12.43" transform="translate(23.122 56.519)" fill="#fff"/>
  <rect id="Rectangle_376" data-name="Rectangle 376" width="9.844" height="12.43" transform="translate(34.683 56.519)" fill="#fff"/>
  <rect id="Rectangle_377" data-name="Rectangle 377" width="9.844" height="12.429" transform="translate(11.561 42.39)" fill="#fff"/>
  <rect id="Rectangle_378" data-name="Rectangle 378" width="9.844" height="12.43" transform="translate(11.561 28.259)" fill="#fff"/>
  <rect id="Rectangle_379" data-name="Rectangle 379" width="9.844" height="12.43" transform="translate(11.561 14.13)" fill="#fff"/>
  <rect id="Rectangle_380" data-name="Rectangle 380" width="9.844" height="12.43" transform="translate(23.122 28.259)" fill="#fff"/>
  <rect id="Rectangle_381" data-name="Rectangle 381" width="9.844" height="12.43" transform="translate(23.122 14.13)" fill="#fff"/>
  <rect id="Rectangle_382" data-name="Rectangle 382" width="9.844" height="12.429" transform="translate(11.561)" fill="#fff"/>
  <rect id="Rectangle_383" data-name="Rectangle 383" width="9.844" height="12.429" transform="translate(23.122)" fill="#fff"/>
  <rect id="Rectangle_384" data-name="Rectangle 384" width="9.844" height="12.429" transform="translate(34.683)" fill="#fff"/>
  <rect id="Rectangle_385" data-name="Rectangle 385" width="9.844" height="12.429" fill="#fff"/>
  <rect id="Rectangle_386" data-name="Rectangle 386" width="9.844" height="12.429" transform="translate(23.122 42.39)" fill="#fff"/>
</svg>
