<svg xmlns="http://www.w3.org/2000/svg" width="56.176" height="36.151" viewBox="0 0 56.176 36.151">
  <g id="icon-button-send" transform="translate(56.176) rotate(90)">
    <path id="Path_333" data-name="Path 333" d="M894.937,649.389h11.485v13.634h13.017V649.389h11.484L912.93,633.795Z" transform="translate(-894.854 -606.847)"/>
    <path id="Path_334" data-name="Path 334" d="M974.312,581.479V561.158l-12.893,10.16Z" transform="translate(-938.161 -559.53)"/>
    <path id="Path_335" data-name="Path 335" d="M894.7,561.158v20.321l12.893-10.161Z" transform="translate(-894.699 -559.531)"/>
    <path id="Path_336" data-name="Path 336" d="M920.265,595.4l-2.5,1.968-.432.34-.431-.34-2.5-1.968L901.7,605.411h31.27Z" transform="translate(-899.26 -581.835)"/>
    <path id="Path_337" data-name="Path 337" d="M914.837,566.841l.563.444.563.444,1.371,1.081,1.371-1.081.563-.444.564-.444,13.137-10.353H901.7Z" transform="translate(-899.259 -556.488)"/>
  </g>
</svg>
