<svg xmlns="http://www.w3.org/2000/svg" width="17.334" height="27.691" viewBox="0 0 17.334 27.691"><g transform="translate(-72.949 -687.512)"><g transform="translate(72.949 687.512)"><path d="M983.517,118.538a8.749,8.749,0,0,0-8.67,8.79,10.587,10.587,0,0,0,1.3,5.084l7.5,13.817,7.307-14.093a10.034,10.034,0,0,0,1.226-4.809A8.744,8.744,0,0,0,983.517,118.538Zm0,14.578a5.843,5.843,0,1,1,5.843-5.843A5.843,5.843,0,0,1,983.514,133.116Z" transform="translate(-974.847 -118.538)"/><circle cx="4.115" cy="4.115" r="4.115" transform="translate(2.848 8.735) rotate(-45)"/></g></g></svg>