<svg id="view-switch-icon-objects-map" xmlns="http://www.w3.org/2000/svg" width="17.056" height="26.332" viewBox="0 0 17.056 26.332">
  <g id="Group_900" data-name="Group 900" transform="translate(8.815)">
    <path id="Path_250" data-name="Path 250" d="M1145.116,324.53h-.011v.389h.012Z" transform="translate(-1145.105 -322.169)" fill="#a0a0a0"/>
    <path id="Path_251" data-name="Path 251" d="M1145.1,398.416v.389h.051v-.389Z" transform="translate(-1145.105 -384.554)" fill="#a0a0a0"/>
    <path id="Path_252" data-name="Path 252" d="M1145.118,327.419v-.389h-.012v.389Z" transform="translate(-1145.105 -324.28)" fill="#a0a0a0"/>
    <path id="Path_253" data-name="Path 253" d="M1145.153,395.915h-.048v.389h.049Z" transform="translate(-1145.105 -382.443)" fill="#a0a0a0"/>
    <path id="Path_254" data-name="Path 254" d="M1145.122,309.363l.008,2.361a5.945,5.945,0,0,1,.04,11.889l.041,12.082,6.984-13.4a9.542,9.542,0,0,0,1.166-4.573A8.315,8.315,0,0,0,1145.122,309.363Z" transform="translate(-1145.119 -309.363)" fill="#a0a0a0"/>
    <path id="Path_255" data-name="Path 255" d="M1150.344,334.7a5.173,5.173,0,0,0-5.154-5.167l.035,10.333A5.172,5.172,0,0,0,1150.344,334.7Z" transform="translate(-1145.177 -326.393)" fill="#a0a0a0"/>
  </g>
  <g id="Group_901" data-name="Group 901" transform="translate(0 0)">
    <rect id="Rectangle_357" data-name="Rectangle 357" width="3.706" height="4.68" transform="translate(0 15.96)" fill="#a0a0a0"/>
    <rect id="Rectangle_358" data-name="Rectangle 358" width="3.706" height="4.68" transform="translate(0 21.28)" fill="#a0a0a0"/>
    <rect id="Rectangle_359" data-name="Rectangle 359" width="3.706" height="4.68" transform="translate(0 10.64)" fill="#a0a0a0"/>
    <rect id="Rectangle_360" data-name="Rectangle 360" width="3.706" height="4.68" transform="translate(0 5.32)" fill="#a0a0a0"/>
    <rect id="Rectangle_361" data-name="Rectangle 361" width="3.706" height="4.68" transform="translate(4.353 21.28)" fill="#a0a0a0"/>
    <rect id="Rectangle_362" data-name="Rectangle 362" width="3.706" height="4.68" transform="translate(4.353 15.96)" fill="#a0a0a0"/>
    <rect id="Rectangle_363" data-name="Rectangle 363" width="3.706" height="4.68" transform="translate(4.353 10.64)" fill="#a0a0a0"/>
    <rect id="Rectangle_364" data-name="Rectangle 364" width="3.706" height="4.68" transform="translate(4.353 5.32)" fill="#a0a0a0"/>
    <rect id="Rectangle_365" data-name="Rectangle 365" width="3.706" height="4.68" transform="translate(4.353 0)" fill="#a0a0a0"/>
    <rect id="Rectangle_366" data-name="Rectangle 366" width="3.706" height="4.68" transform="translate(0 0)" fill="#a0a0a0"/>
  </g>
</svg>
