<svg xmlns="http://www.w3.org/2000/svg" width="102.749" height="162.819" viewBox="0 0 102.749 162.819">
  <g id="Group_1159" data-name="Group 1159" transform="translate(-8792.665 -14191.294)">
    <path id="Path_396" data-name="Path 396" d="M2620.349-315.807a38.07,38.07,0,0,0-38.027,38.027,38.07,38.07,0,0,0,38.027,38.026,38.069,38.069,0,0,0,38.026-38.026A38.069,38.069,0,0,0,2620.349-315.807Zm0,67.175A29.182,29.182,0,0,1,2591.2-277.78a29.182,29.182,0,0,1,29.149-29.149A29.181,29.181,0,0,1,2649.5-277.78,29.181,29.181,0,0,1,2620.349-248.632Z" transform="translate(6223.691 14520.867)" fill="none"/>
    <path id="Path_400" data-name="Path 400" d="M2620.349-329.572c-28.328.01-51.375,23.395-51.375,52.131,0,10.535,3.106,22.7,7.729,30.268l.027.045.025.045,43.594,80.33,43.594-80.33.024-.045.027-.045c4.623-7.569,7.729-19.733,7.729-30.268C2671.723-306.177,2648.677-329.562,2620.349-329.572Zm0,89.818a38.07,38.07,0,0,1-38.027-38.026,38.07,38.07,0,0,1,38.027-38.027,38.069,38.069,0,0,1,38.026,38.027A38.069,38.069,0,0,1,2620.349-239.754Z" transform="translate(6223.691 14520.867)"/>
    <circle id="Ellipse_95" data-name="Ellipse 95" cx="29.148" cy="29.148" r="29.148" transform="translate(8814.891 14213.938)"/>
  </g>
</svg>
