<svg id="icon-view-switch-map" xmlns="http://www.w3.org/2000/svg" width="16.483" height="26.332" viewBox="0 0 16.483 26.332">
  <path id="Path_256" data-name="Path 256" d="M983.091,118.538a8.319,8.319,0,0,0-8.244,8.358,10.067,10.067,0,0,0,1.239,4.835l7.13,13.139,6.949-13.4a9.542,9.542,0,0,0,1.166-4.573A8.315,8.315,0,0,0,983.091,118.538Zm0,13.862a5.556,5.556,0,1,1,5.556-5.556A5.556,5.556,0,0,1,983.089,132.4Z" transform="translate(-974.847 -118.538)" fill="#a0a0a0"/>
  <circle id="Ellipse_82" data-name="Ellipse 82" cx="4.811" cy="4.811" r="4.811" transform="translate(1.437 8.306) rotate(-45)" fill="#a0a0a0"/>
</svg>
