<svg id="icon-file-type-pdf" xmlns="http://www.w3.org/2000/svg" width="44.953" height="70.306" viewBox="0 0 44.953 70.306">
  <path id="Path_329" data-name="Path 329" d="M334.154-376.074v15.711h15.711Z" transform="translate(-307.005 378.167)"/>
  <g id="Group_973" data-name="Group 973" transform="translate(0)">
    <path id="Path_330" data-name="Path 330" d="M308.354-253.6H307v9.406h1.211a2.806,2.806,0,0,0,2.322-.911,4.306,4.306,0,0,0,.75-2.7v-2.126a4.347,4.347,0,0,0-.729-2.782A2.688,2.688,0,0,0,308.354-253.6Z" transform="translate(-291.623 308.779)"/>
    <path id="Path_331" data-name="Path 331" d="M288.148-253.6h-2.323v4.711h2.314a1.953,1.953,0,0,0,1.54-.6,2.513,2.513,0,0,0,.535-1.725,2.591,2.591,0,0,0-.552-1.732A1.88,1.88,0,0,0,288.148-253.6Z" transform="translate(-279.625 308.779)"/>
    <path id="Path_332" data-name="Path 332" d="M296.069-359.631H295.2V-380.9H271.521V-310.6h44.953v-49.034Zm-13.361,38.947a3.518,3.518,0,0,1-2.566.967h-2.421v4.695h-1.508v-11.992h3.822a3.46,3.46,0,0,1,2.627,1,3.7,3.7,0,0,1,.955,2.664A3.665,3.665,0,0,1,282.708-320.683Zm9.966.688a5.28,5.28,0,0,1-1.178,3.678,4.382,4.382,0,0,1-3.418,1.3h-2.685v-11.992h2.858a4.126,4.126,0,0,1,3.261,1.314,5.393,5.393,0,0,1,1.161,3.694Zm8.422-5.724h-4.736v4.11h4.052v1.293h-4.052v5.3h-1.508v-11.992H301.1Z" transform="translate(-271.521 380.902)"/>
  </g>
</svg>
