<svg xmlns="http://www.w3.org/2000/svg" width="109.966" height="170.216" viewBox="0 0 109.966 170.216">
  <g id="Group_1163" data-name="Group 1163" transform="translate(-2922.589 454.09)">
    <path id="Path_425" data-name="Path 425" d="M2978.9-333.526l29.373,49.653,9.409-5.591-32.5-54.319Z"/>
    <path id="Path_426" data-name="Path 426" d="M2933.649-443.387l-9.081-8.22,2.563,11.864Z"/>
    <path id="Path_427" data-name="Path 427" d="M2932.944-412.828l21.3-11.911-16.687-15.106-9.326,5.214Z"/>
    <path id="Path_428" data-name="Path 428" d="M2988.127-348.6l33.85,56.577,8.645-5.137-36.355-61.464Z"/>
    <path id="Path_429" data-name="Path 429" d="M2934.769-408.12l23.386,39.532,6.163-10.063L2943.7-413.113Z"/>
    <path id="Path_430" data-name="Path 430" d="M2967.266-383.462l6.26-10.222-16.048-27.133-9.413,5.263Z"/>
    <path id="Path_431" data-name="Path 431" d="M3025.84-454.083c-2.38.351-4.34,11.718-8.54,12.169s-12.809-4.282-18.689,7.286a15.474,15.474,0,0,0,.089,14.955c.284-.013.567-.028.854-.028h0a17.975,17.975,0,0,1,9.389,2.653,17.882,17.882,0,0,1,6.77,7.491c8.786-.728,15.021-10.114,16.426-18.536C3034.17-440.262,3028.22-454.434,3025.84-454.083Z"/>
    <path id="Path_432" data-name="Path 432" d="M2985.229-353.438l6.156-10.052,19.244-31.418a13,13,0,0,0-1.728-15.8,12.981,12.981,0,0,0-2.568-2.081h0c-.341-.209-.689-.394-1.041-.567-.093-.047-.187-.091-.282-.135q-.461-.215-.931-.392c-.052-.019-.1-.041-.154-.06-.251-.09-.5-.17-.758-.244l.022.018c-.118-.035-.235-.077-.354-.109-.091-.023-.182-.044-.273-.065q-.456-.109-.915-.185c-.079-.013-.157-.028-.236-.04q-.552-.08-1.107-.112c-.081,0-.161,0-.242-.008-.244-.009-.488-.007-.732,0-.384.006-.765.032-1.145.072-.114.012-.228.017-.341.031a13.107,13.107,0,0,0-1.445.276c-.108.027-.213.063-.32.093-.372.1-.739.22-1.1.356-.146.055-.29.113-.434.173-.34.141-.674.3-1,.469-.119.062-.239.118-.356.184a13.051,13.051,0,0,0-1.259.8c-.061.044-.117.1-.177.141q-.512.384-.988.82c-.116.107-.228.22-.341.331-.262.259-.514.532-.756.816-.1.119-.2.234-.3.357a12.826,12.826,0,0,0-.9,1.279l0,0-12.051,19.674h0l-6.243,10.194-2.947,4.812h0l-6.18,10.09h0L2924.5-304.073a13,13,0,0,0,4.3,17.876,12.94,12.94,0,0,0,6.778,1.916,12.993,12.993,0,0,0,11.1-6.212l29.34-47.9,6.266-10.231Z"/>
  </g>
</svg>
