<svg id="icon-view-switch-objects" xmlns="http://www.w3.org/2000/svg" width="17.129" height="26.524" viewBox="0 0 17.129 26.524">
  <rect id="Rectangle_367" data-name="Rectangle 367" width="3.787" height="4.781" transform="translate(0 16.307)" fill="#9f9f9f"/>
  <rect id="Rectangle_368" data-name="Rectangle 368" width="3.787" height="4.781" transform="translate(0 21.742)" fill="#9f9f9f"/>
  <rect id="Rectangle_369" data-name="Rectangle 369" width="3.787" height="4.781" transform="translate(0 10.871)" fill="#9f9f9f"/>
  <rect id="Rectangle_370" data-name="Rectangle 370" width="3.787" height="4.781" transform="translate(13.342 10.871)" fill="#9f9f9f"/>
  <rect id="Rectangle_371" data-name="Rectangle 371" width="3.787" height="4.781" transform="translate(0 5.435)" fill="#9f9f9f"/>
  <rect id="Rectangle_372" data-name="Rectangle 372" width="3.787" height="4.781" transform="translate(13.342 16.307)" fill="#9f9f9f"/>
  <rect id="Rectangle_373" data-name="Rectangle 373" width="3.787" height="4.781" transform="translate(4.447 21.742)" fill="#9f9f9f"/>
  <rect id="Rectangle_374" data-name="Rectangle 374" width="3.787" height="4.781" transform="translate(13.342 5.435)" fill="#9f9f9f"/>
  <rect id="Rectangle_375" data-name="Rectangle 375" width="3.787" height="4.781" transform="translate(8.895 21.742)" fill="#9f9f9f"/>
  <rect id="Rectangle_376" data-name="Rectangle 376" width="3.787" height="4.781" transform="translate(13.342 21.742)" fill="#9f9f9f"/>
  <rect id="Rectangle_377" data-name="Rectangle 377" width="3.787" height="4.781" transform="translate(4.447 16.307)" fill="#9f9f9f"/>
  <rect id="Rectangle_378" data-name="Rectangle 378" width="3.787" height="4.781" transform="translate(4.447 10.871)" fill="#9f9f9f"/>
  <rect id="Rectangle_379" data-name="Rectangle 379" width="3.787" height="4.781" transform="translate(4.447 5.435)" fill="#9f9f9f"/>
  <rect id="Rectangle_380" data-name="Rectangle 380" width="3.787" height="4.781" transform="translate(8.895 10.871)" fill="#9f9f9f"/>
  <rect id="Rectangle_381" data-name="Rectangle 381" width="3.787" height="4.781" transform="translate(8.895 5.435)" fill="#9f9f9f"/>
  <rect id="Rectangle_382" data-name="Rectangle 382" width="3.787" height="4.781" transform="translate(4.447)" fill="#9f9f9f"/>
  <rect id="Rectangle_383" data-name="Rectangle 383" width="3.787" height="4.781" transform="translate(8.895)" fill="#9f9f9f"/>
  <rect id="Rectangle_384" data-name="Rectangle 384" width="3.787" height="4.781" transform="translate(13.342)" fill="#9f9f9f"/>
  <rect id="Rectangle_385" data-name="Rectangle 385" width="3.787" height="4.781" fill="#9f9f9f"/>
  <rect id="Rectangle_386" data-name="Rectangle 386" width="3.787" height="4.781" transform="translate(8.895 16.307)" fill="#9f9f9f"/>
</svg>
