<svg xmlns="http://www.w3.org/2000/svg" width="103.707" height="161.961" viewBox="0 0 103.707 161.961">
  <g id="Group_1142" data-name="Group 1142" transform="translate(-8792.186 -13961.413)">
    <path id="Path_409" data-name="Path 409" d="M2568.5-397.492H2672.2V-527.737H2568.5Zm43.4-82.052,8.455-26.021,8.455,26.021h27.361l-22.136,16.083,8.455,26.022-22.135-16.083-22.136,16.083,8.455-26.022-22.136-16.083Z" transform="translate(6223.691 14520.867)"/>
    <path id="Path_410" data-name="Path 410" d="M2665.158-553.511a12.272,12.272,0,0,1-12.258,12.259,12.272,12.272,0,0,1-12.259-12.259v-5.942h-36.566v5.942a12.272,12.272,0,0,1-12.259,12.259h-.405a12.272,12.272,0,0,1-12.259-12.259v-5.942H2568.5v23.613H2672.2v-23.613h-7.044Z" transform="translate(6223.691 14520.867)"/>
    <path id="Path_412" data-name="Path 412" d="M2585.546-553.511a5.865,5.865,0,0,0,5.865,5.865h.405a5.841,5.841,0,0,0,2.283-.461,5.809,5.809,0,0,0,1-.541,5.859,5.859,0,0,0,2.586-4.863v-5.942h-12.135Z" transform="translate(6223.691 14520.867)"/>
    <path id="Path_414" data-name="Path 414" d="M2647.035-553.511a5.841,5.841,0,0,0,.461,2.283,5.878,5.878,0,0,0,.878,1.448,5.874,5.874,0,0,0,2.781,1.87,5.851,5.851,0,0,0,1.745.264,5.845,5.845,0,0,0,2.283-.461,5.9,5.9,0,0,0,1.447-.878,5.852,5.852,0,0,0,2.134-4.526v-5.942h-11.729Z" transform="translate(6223.691 14520.867)"/>
  </g>
</svg>
