<svg xmlns="http://www.w3.org/2000/svg" xmlns:xlink="http://www.w3.org/1999/xlink" width="126.032" height="30.033" viewBox="0 0 126.032 30.033">
  <defs>
    <clipPath id="clip-path">
      <path id="Path_391" data-name="Path 391" d="M0,6.75H126.032V-23.283H0Z" transform="translate(0 23.283)"/>
    </clipPath>
  </defs>
  <g id="logo-ustr" transform="translate(0 23.283)">
    <g id="Group_1104" data-name="Group 1104" transform="translate(0 -23.283)" clip-path="url(#clip-path)">
      <g id="Group_1098" data-name="Group 1098" transform="translate(0 0)">
        <path id="Path_385" data-name="Path 385" d="M0,1.048l.014,7.3s4.168-4.424,8.61-4.685S20.517,8.148,27.05,8.018a12.5,12.5,0,0,0,9.583-4.226l.014-7.408s-5.2,5.013-9.641,4.752S14.549-3.962,8.842-3.438A13.519,13.519,0,0,0,0,1.048" transform="translate(0 3.616)"/>
      </g>
      <g id="Group_1099" data-name="Group 1099" transform="translate(0 10.253)">
        <path id="Path_386" data-name="Path 386" d="M0,1.049l.014,7.3s4.168-4.424,8.61-4.685S20.517,8.148,27.05,8.018a12.5,12.5,0,0,0,9.583-4.226l.014-7.409s-5.2,5.014-9.641,4.753S14.549-3.961,8.842-3.438A13.519,13.519,0,0,0,0,1.049" transform="translate(0 3.617)"/>
      </g>
      <g id="Group_1100" data-name="Group 1100" transform="translate(3.61 20.106)">
        <path id="Path_387" data-name="Path 387" d="M2.231,1.116A4.964,4.964,0,0,1-2.732,6.079,4.964,4.964,0,0,1-7.7,1.116,4.964,4.964,0,0,1-2.732-3.848,4.964,4.964,0,0,1,2.231,1.116" transform="translate(7.696 3.848)"/>
      </g>
      <g id="Group_1101" data-name="Group 1101" transform="translate(41.467 0.726)">
        <path id="Path_388" data-name="Path 388" d="M17.58.435h-1.3c.055,2.14-.013,4.953-.026,5.4h1.378a29.5,29.5,0,0,1,.03-3.084c.075-.641.348-1.228,1-1.228.537,0,.718.413.735.935.04,1.129-.018,2.259-.037,3.377h1.369c-.009-.543-.048-2.487.036-3.15.076-.619.37-1.162,1.006-1.162.538,0,.735.359.755.9.013.369-.017,2.6-.057,3.41h1.36c-.048-1.9.045-3.737.034-4.062A1.45,1.45,0,0,0,22.249.3a1.657,1.657,0,0,0-1.618.988A1.453,1.453,0,0,0,19.139.3a1.63,1.63,0,0,0-1.549.978l-.021-.022ZM13.4,5.833h1.29c-.044-1.8-.008-3.595.055-5.4H13.376c.009.543.043,2.324-.05,3.042-.1.749-.484,1.271-1.207,1.271-.675,0-1.011-.4-1.037-1.14C11.061,3,11.133.881,11.157.435H9.768C9.824,2.3,9.715,3.4,9.747,4.3a1.626,1.626,0,0,0,1.846,1.663,1.746,1.746,0,0,0,1.756-.978h.019ZM8.28-.477l0-1.022H6.876L6.892-.477ZM6.894.435c.053,1.8.058,3.607-.036,5.4H8.314c-.066-2.183-.074-3.791,0-5.4ZM3.958,1.488a14.78,14.78,0,0,1-.048,1.988C3.819,4.193,3.453,4.9,2.719,4.9c-.792,0-1.2-.653-1.225-1.478A1.747,1.747,0,0,1,3.28,1.368a2.138,2.138,0,0,1,.678.12m.054,4.344H5.293c-.076-2.172-.022-5.974.04-7.245H3.945C3.979-.467,3.982-.087,3.97.4A5.932,5.932,0,0,0,3,.3C1.052.3.075,1.683.138,3.508A2.281,2.281,0,0,0,2.287,5.964a1.894,1.894,0,0,0,1.725-.989h.021Zm-6.364,0h1.291c-.044-1.8-.009-3.595.055-5.4h-1.37c.01.543.043,2.324-.049,3.042-.1.749-.484,1.271-1.207,1.271-.675,0-1.011-.4-1.037-1.14C-4.69,3-4.617.881-4.594.435H-5.982C-5.926,2.3-6.034,3.4-6,4.3A1.628,1.628,0,0,0-4.156,5.964,1.746,1.746,0,0,0-2.4,4.987h.019ZM-6.883,1.5l0-1.064H-8.1L-8.109-.858l-1.251.3-.014.988H-10.1l0,1.064h.685c-.012.24-.068,2.51-.049,3.064.037,1.064.508,1.4,1.427,1.4A3.727,3.727,0,0,0-6.948,5.8l.137-1.118a2.281,2.281,0,0,1-.778.13c-.43,0-.521-.37-.537-.826-.014-.381.017-2.02.019-2.488Zm-7.448,4.237a6.432,6.432,0,0,0,1.572.228c.82,0,1.932-.348,1.894-1.467-.046-1.348-1.917-1.988-1.941-2.673-.015-.467.392-.521.793-.521a2.556,2.556,0,0,1,1.076.282l-.1-1.108A7.369,7.369,0,0,0-12.488.3c-1.291,0-1.826.6-1.8,1.489.044,1.249,1.912,1.847,1.939,2.607.015.455-.421.565-.724.565a3.559,3.559,0,0,1-1.412-.4Zm-5.99-4.368c.89,0,1.278.739,1.309,1.641.035.967-.334,1.891-1.312,1.891-.841,0-1.3-.729-1.327-1.6-.035-1.01.313-1.934,1.33-1.934M-20.348.3A2.586,2.586,0,0,0-23.011,3.27a2.607,2.607,0,0,0,2.7,2.695,2.588,2.588,0,0,0,2.656-2.923A2.581,2.581,0,0,0-20.348.3m-4.795.13h-1.3c.085,2.412.037,3.867,0,5.4h1.36l-.023-.672a17.2,17.2,0,0,1,.034-2.37c.111-.76.494-1.271,1.2-1.271a1.527,1.527,0,0,1,.531.108L-23.425.358A1.855,1.855,0,0,0-23.848.3a1.393,1.393,0,0,0-1.281.858h-.019Zm-5.1.934c.93,0,1.356.717,1.389,1.673.028.837-.3,1.859-1.178,1.859a1.43,1.43,0,0,1-1.283-1.5,14.285,14.285,0,0,1,.034-1.814,3.155,3.155,0,0,1,1.038-.218m-1.082,3.727h.021a2.118,2.118,0,0,0,1.721.869c1.477,0,2.141-1.412,2.09-2.891A2.54,2.54,0,0,0-30.212.3a11.306,11.306,0,0,0-2.434.3c.07,2.553.052,5.116-.045,7.658h1.4ZM-39.613.435h-1.4c.64,1.8,1.3,3.585,1.89,5.4h1.476q.933-2.72,1.972-5.4h-1.418L-38.34,4.422h-.019Zm-3.861,4.5a2.034,2.034,0,0,1-.757.163c-.391,0-.826-.13-.844-.641-.035-.966,1.6-.912,2.092-1.412-.025,1.825-.037,2.314-.07,2.791h1.36c-.057-1.629.049-3.345.022-4.116C-41.712.533-42.757.3-43.617.3a8.1,8.1,0,0,0-2.1.315l-.112,1.01a4.775,4.775,0,0,1,1.891-.455c.361,0,.893.076.911.6.041,1.173-3.425.467-3.349,2.661.017.489.219,1.532,1.794,1.532a4.077,4.077,0,0,0,.9-.1ZM-47.016,1.5V.435h-1.222l-.006-1.292-1.25.3-.014.988h-.724l0,1.064h.685c-.012.24-.068,2.51-.05,3.064.037,1.064.51,1.4,1.428,1.4A3.718,3.718,0,0,0-47.082,5.8l.138-1.118a2.281,2.281,0,0,1-.778.13c-.431,0-.521-.37-.538-.826-.013-.381.018-2.02.022-2.488Zm-7.448,4.237a6.431,6.431,0,0,0,1.571.228c.822,0,1.934-.348,1.895-1.467-.048-1.348-1.917-1.988-1.941-2.673-.017-.467.392-.521.793-.521a2.556,2.556,0,0,1,1.076.282l-.1-1.108A7.381,7.381,0,0,0-52.62.3c-1.291,0-1.826.6-1.8,1.489C-54.373,3.041-52.5,3.64-52.477,4.4c.015.455-.421.565-.724.565a3.559,3.559,0,0,1-1.412-.4ZM-58-1.413A7.879,7.879,0,0,1-58.82.022h1.037a8.675,8.675,0,0,0,1.025-1.434Zm1.016,7.245h1.29c-.044-1.8-.008-3.595.055-5.4h-1.369c.01.543.043,2.324-.05,3.042-.1.749-.484,1.271-1.206,1.271-.675,0-1.013-.4-1.037-1.14-.022-.608.05-2.726.075-3.172h-1.389c.055,1.868-.053,2.965-.021,3.867a1.627,1.627,0,0,0,1.847,1.663,1.748,1.748,0,0,0,1.756-.978h.019Z" transform="translate(60.641 1.499)"/>
      </g>
      <g id="Group_1102" data-name="Group 1102" transform="translate(41.17 11.215)">
        <path id="Path_389" data-name="Path 389" d="M9.966.019c.064,2.422.052,4.833-.04,7.245h1.4a24.127,24.127,0,0,1,.066-2.9c.11-.783.507-1.412,1.28-1.412.713,0,1.05.379,1.077,1.162a25.975,25.975,0,0,1-.115,3.15h1.447c-.057-1.629.027-3.15,0-3.813A1.642,1.642,0,0,0,13.2,1.736a1.832,1.832,0,0,0-1.881,1.042L11.3,2.757c0-.89.034-1.814.059-2.737ZM9,6.026a3.357,3.357,0,0,1-1.184.25c-.929,0-1.41-.619-1.445-1.619C6.336,3.6,6.8,2.855,7.8,2.855a3.718,3.718,0,0,1,1.271.261L8.948,1.943a4.9,4.9,0,0,0-1.434-.206c-2.6,0-2.513,2.541-2.5,2.965C5.076,6.429,5.98,7.4,7.534,7.4a5.042,5.042,0,0,0,1.343-.184ZM3.23.019a7.879,7.879,0,0,1-.82,1.434H3.445A8.729,8.729,0,0,0,4.471.019ZM2.424,1.867c.053,1.8.058,3.605-.036,5.4H3.844c-.066-2.184-.074-3.791,0-5.4Zm-5.182,0H-4.126c.044,2.106,0,3.759-.076,5.4h1.4a24.4,24.4,0,0,1,.066-2.9c.108-.783.508-1.412,1.28-1.412.713,0,1.05.379,1.077,1.162A26.24,26.24,0,0,1-.5,7.265H.951c-.058-1.629.027-3.15,0-3.813A1.643,1.643,0,0,0-.925,1.736a1.869,1.869,0,0,0-1.832,1.01h-.019ZM-5.194,2.931l0-1.064H-6.415L-6.42.573l-1.251.3-.014.989h-.724V2.931h.684c-.012.239-.068,2.509-.049,3.064.037,1.064.508,1.4,1.428,1.4a3.723,3.723,0,0,0,1.089-.163l.137-1.12a2.242,2.242,0,0,1-.777.13c-.431,0-.522-.369-.538-.826-.013-.379.017-2.02.021-2.487ZM-9.672.953l0-1.02h-1.407l.015,1.02Zm-1.387.913c.054,1.8.058,3.605-.036,5.4h1.458c-.067-2.184-.074-3.791,0-5.4Zm-1.688,5.4c-.015-2.412-.012-4.833.07-7.245h-1.407c.052,2.9,0,5.019-.061,7.245Zm-4.743-.9a2.009,2.009,0,0,1-.757.163c-.391,0-.826-.13-.844-.64-.034-.967,1.6-.913,2.091-1.412-.023,1.824-.036,2.313-.068,2.791h1.36c-.058-1.629.049-3.346.022-4.117-.041-1.184-1.085-1.411-1.946-1.411a8.1,8.1,0,0,0-2.1.315l-.112,1.01A4.776,4.776,0,0,1-17.954,2.6c.362,0,.893.076.911.6.041,1.174-3.425.468-3.349,2.662.017.489.221,1.531,1.794,1.531a4,4,0,0,0,.9-.1Zm-3.591-3.432,0-1.064H-22.3L-22.307.573l-1.25.3-.014.989H-24.3V2.931h.684c-.012.239-.07,2.509-.049,3.064.036,1.064.508,1.4,1.427,1.4a3.732,3.732,0,0,0,1.09-.163l.137-1.12a2.25,2.25,0,0,1-.778.13c-.43,0-.521-.369-.537-.826-.014-.379.017-2.02.021-2.487ZM-27.7,2.8c.89,0,1.278.738,1.309,1.639.034.967-.335,1.891-1.313,1.891-.84,0-1.3-.728-1.326-1.6-.035-1.01.313-1.934,1.33-1.934m-.027-1.064A2.585,2.585,0,0,0-30.394,4.7,2.6,2.6,0,0,0-27.69,7.4a2.585,2.585,0,0,0,2.655-2.922,2.578,2.578,0,0,0-2.7-2.737M-31.16,2.931V1.867H-32.38L-32.387.573l-1.25.3-.014.989h-.724l0,1.064h.685c-.012.239-.068,2.509-.05,3.064.037,1.064.508,1.4,1.428,1.4a3.717,3.717,0,0,0,1.089-.163l.138-1.12a2.25,2.25,0,0,1-.778.13c-.431,0-.521-.369-.538-.826-.013-.379.018-2.02.021-2.487Z" transform="translate(34.377 0.067)"/>
      </g>
      <g id="Group_1103" data-name="Group 1103" transform="translate(93.878 10.801)">
        <path id="Path_390" data-name="Path 390" d="M6.589.249a.462.462,0,0,1,.432-.5.5.5,0,0,1,.467.5.463.463,0,0,1-.432.5.5.5,0,0,1-.467-.5m-.547,0A1.106,1.106,0,0,0,7.077,1.357,1.018,1.018,0,0,0,8.036.249,1.109,1.109,0,0,0,7-.859,1.018,1.018,0,0,0,6.042.249M8.081,6.887H9.372c-.044-1.8-.008-3.6.055-5.4H8.059c.009.543.043,2.324-.05,3.042C7.908,5.278,7.525,5.8,6.8,5.8c-.675,0-1.011-.4-1.037-1.14-.021-.608.052-2.727.075-3.172H4.451c.055,1.868-.053,2.965-.021,3.867A1.626,1.626,0,0,0,6.276,7.017a1.746,1.746,0,0,0,1.756-.978h.019Zm-11.412-5.4h-1.3c.055,2.14-.013,4.955-.027,5.4h1.379A29.85,29.85,0,0,1-3.251,3.8c.076-.641.35-1.228,1-1.228.538,0,.718.413.737.935.04,1.129-.018,2.259-.039,3.378H-.18C-.19,6.343-.227,4.4-.143,3.736c.076-.619.37-1.162,1-1.162.539,0,.737.359.756.9.013.37-.017,2.6-.057,3.412H2.92c-.048-1.9.045-3.738.034-4.063A1.451,1.451,0,0,0,1.337,1.357,1.658,1.658,0,0,0-.28,2.345a1.453,1.453,0,0,0-1.491-.988,1.63,1.63,0,0,0-1.549.978l-.021-.022ZM-6.286.575l0-1.022H-7.691L-7.674.575Zm-1.385.912c.053,1.8.057,3.607-.037,5.4h1.458c-.067-2.184-.074-3.792,0-5.4ZM-11,.51a8.345,8.345,0,0,0-.548-.868h-1.056c.31.467.6.944.862,1.433h1.428c.306-.479.641-.956,1-1.433h-1.046A8.31,8.31,0,0,0-11,.51m-1.931.978.009,1.086c.644-.043,1.452-.086,2.313-.086L-13.088,5.7l.012,1.184h3.892l.031-1.054c-.507.021-1.033.054-1.688.054h-.743l2.442-3.15.005-1.25Zm-4.65,2.054a1.245,1.245,0,0,1,1.167-1.282c.743,0,1.023.445,1.051,1.282Zm3.487.728a3.9,3.9,0,0,0,.036-.631,2.175,2.175,0,0,0-2.358-2.281c-2.3,0-2.569,2.032-2.535,3.02a2.533,2.533,0,0,0,2.811,2.64,6.389,6.389,0,0,0,1.576-.206l.137-1.142a4.854,4.854,0,0,1-1.611.348,1.486,1.486,0,0,1-1.55-1.575l-.006-.174Zm-7.332-2.781h-1.3c.084,2.412.037,3.867,0,5.4h1.358l-.023-.673a17.173,17.173,0,0,1,.035-2.368c.11-.761.493-1.272,1.2-1.272a1.5,1.5,0,0,1,.531.11l-.084-1.272a1.816,1.816,0,0,0-.422-.054,1.391,1.391,0,0,0-1.28.859h-.019Z" transform="translate(22.727 0.859)"/>
      </g>
    </g>
  </g>
</svg>
