<svg xmlns="http://www.w3.org/2000/svg" width="58" height="58" viewBox="0 0 58 58">
  <path id="facebook_10_" data-name="facebook (10)" d="M53.817,0H4.183A4.183,4.183,0,0,0,0,4.183V53.816A4.183,4.183,0,0,0,4.183,58h26.8V35.57H23.449V26.791h7.533V20.33c0-7.492,4.574-11.571,11.258-11.571a61.953,61.953,0,0,1,6.754.345v7.831H44.386c-3.637,0-4.341,1.728-4.341,4.264v5.591h8.694L47.607,35.57H40.045V58H53.817A4.183,4.183,0,0,0,58,53.816V4.183A4.183,4.183,0,0,0,53.817,0Zm0,0" transform="translate(0 0)"/>
</svg>
