<svg id="instagram_7_" data-name="instagram (7)" xmlns="http://www.w3.org/2000/svg" width="58" height="58" viewBox="0 0 58 58">
  <path id="Path_120" data-name="Path 120" d="M162.118,139.319a5.514,5.514,0,0,0-3.16-3.16,9.214,9.214,0,0,0-3.092-.573c-1.756-.08-2.283-.1-6.729-.1s-4.973.017-6.729.1a9.219,9.219,0,0,0-3.092.573,5.517,5.517,0,0,0-3.161,3.16,9.217,9.217,0,0,0-.573,3.092c-.08,1.756-.1,2.282-.1,6.729s.017,4.973.1,6.729a9.213,9.213,0,0,0,.573,3.092,5.514,5.514,0,0,0,3.16,3.16,9.2,9.2,0,0,0,3.092.573c1.756.08,2.282.1,6.729.1s4.974-.017,6.729-.1a9.2,9.2,0,0,0,3.092-.573,5.515,5.515,0,0,0,3.16-3.16,9.221,9.221,0,0,0,.573-3.092c.08-1.756.1-2.283.1-6.729s-.017-4.973-.1-6.729a9.2,9.2,0,0,0-.573-3.092Zm-12.981,18.372a8.551,8.551,0,1,1,8.551-8.551A8.551,8.551,0,0,1,149.137,157.691Zm8.889-15.442a2,2,0,1,1,2-2A2,2,0,0,1,158.026,142.25Zm0,0" transform="translate(-120.137 -120.14)"/>
  <path id="Path_121" data-name="Path 121" d="M218.1,212.551A5.551,5.551,0,1,1,212.551,207,5.551,5.551,0,0,1,218.1,212.551Zm0,0" transform="translate(-183.551 -183.551)"/>
  <path id="Path_122" data-name="Path 122" d="M53.817,0H4.183A4.183,4.183,0,0,0,0,4.183V53.817A4.183,4.183,0,0,0,4.183,58H53.817A4.183,4.183,0,0,0,58,53.817V4.183A4.183,4.183,0,0,0,53.817,0ZM45.552,35.865a12.217,12.217,0,0,1-.774,4.042,8.515,8.515,0,0,1-4.87,4.87,12.226,12.226,0,0,1-4.042.774c-1.776.081-2.343.1-6.865.1s-5.09-.019-6.866-.1a12.226,12.226,0,0,1-4.042-.774,8.515,8.515,0,0,1-4.87-4.87,12.215,12.215,0,0,1-.774-4.042c-.082-1.776-.1-2.343-.1-6.866s.019-5.09.1-6.865a12.219,12.219,0,0,1,.773-4.042,8.52,8.52,0,0,1,4.871-4.87,12.229,12.229,0,0,1,4.042-.774c1.776-.081,2.343-.1,6.865-.1s5.09.019,6.865.1a12.231,12.231,0,0,1,4.042.773,8.517,8.517,0,0,1,4.87,4.871,12.216,12.216,0,0,1,.774,4.042c.081,1.776.1,2.343.1,6.865S45.634,34.09,45.552,35.865Zm0,0" transform="translate(0)"/>
</svg>
