<svg id="youtube_8_" data-name="youtube (8)" xmlns="http://www.w3.org/2000/svg" width="58" height="58" viewBox="0 0 58 58">
  <path id="Path_123" data-name="Path 123" d="M224.113,218.905l9.433-5.433-9.433-5.433Zm0,0" transform="translate(-198.725 -184.472)"/>
  <path id="Path_124" data-name="Path 124" d="M53.817,0H4.183A4.183,4.183,0,0,0,0,4.183V53.817A4.183,4.183,0,0,0,4.183,58H53.817A4.183,4.183,0,0,0,58,53.817V4.183A4.183,4.183,0,0,0,53.817,0Zm-6.7,29.03s0,5.881-.746,8.717a4.541,4.541,0,0,1-3.194,3.194c-2.836.747-14.18.747-14.18.747s-11.314,0-14.18-.776a4.541,4.541,0,0,1-3.194-3.194C10.879,34.911,10.879,29,10.879,29s0-5.881.747-8.717a4.633,4.633,0,0,1,3.194-3.224c2.836-.747,14.18-.747,14.18-.747s11.344,0,14.18.776a4.541,4.541,0,0,1,3.194,3.194c.776,2.836.746,8.747.746,8.747Zm0,0" transform="translate(0)"/>
</svg>
